<svg width="737" height="720" viewBox="0 0 737 720" fill="none" xmlns="http://www.w3.org/2000/svg">
<path d="M270.847 672.351L157.47 475.977C148.177 459.88 125.143 464.593 121.062 479.828L62.5557 698.177C59.8342 708.334 67.2686 721.211 79.0343 723.001C140.4 732.642 203.99 723.829 262.435 698.669C272.342 697.243 276.423 682.01 270.847 672.351Z" fill="#FFF287"/>
<path d="M-207.842 341.354C-217.482 402.72 -208.669 466.31 -183.51 524.755C-179.544 535.342 -165.918 540.353 -154.651 533.848L41.7231 420.472C57.8194 411.178 53.1065 388.145 37.8722 384.064L-180.477 325.557C-193.172 322.155 -206.049 329.589 -207.842 341.354Z" fill="#FFF287"/>
<path d="M-144.479 592.359C-105.514 644.977 -54.1705 681.866 2.18521 705.131C13.2706 709.461 24.5376 702.956 28.8682 691.872L87.3748 473.523C92.1368 455.751 73.8668 442.691 57.7704 451.984L-136.994 564.431C-147.582 568.398 -151.664 583.631 -144.479 592.359Z" fill="#FFF287"/>
<path d="M399.178 188.34C360.213 135.721 308.87 98.8326 252.514 75.5676C241.429 71.2378 230.162 77.7428 225.831 88.8266L167.324 307.176C162.562 324.948 180.832 338.008 196.929 328.715L393.305 215.337C402.282 212.301 406.363 197.068 399.178 188.34Z" fill="#FFF287"/>
<path d="M68.2543 321.451L-45.1225 125.076C-50.6981 115.419 -63.3926 112.016 -74.6612 118.522C-127.28 157.487 -164.169 208.83 -187.434 265.186C-191.764 276.271 -185.259 287.538 -174.175 291.869L44.1748 350.376C61.9508 355.137 77.5475 337.547 68.2543 321.451Z" fill="#FFF287"/>
<path d="M-16.1479 108.348L97.2289 304.722C106.522 320.819 129.556 316.106 133.637 300.871L192.143 82.5217C194.865 72.3649 187.43 59.4881 175.664 57.6975C114.299 48.0571 50.7085 56.8699 -7.73655 82.0296C-17.6428 83.4562 -22.653 97.0808 -16.1479 108.348Z" fill="#FFF287"/>
<path d="M462.541 439.345C472.181 377.979 463.368 314.389 438.209 255.944C434.243 245.357 420.617 240.346 409.35 246.851L212.976 360.227C196.879 369.521 201.592 392.554 216.827 396.635L435.176 455.142C447.871 458.544 460.748 451.11 462.541 439.345Z" fill="#FFF287"/>
<path d="M329.359 662.178C381.978 623.213 418.866 571.87 442.131 515.514C446.461 504.429 439.956 493.161 428.872 488.831L210.523 430.324C192.751 425.562 179.691 443.832 188.984 459.929L302.362 656.305C305.398 665.282 320.631 669.363 329.359 662.178Z" fill="#FFF287"/>
<path d="M-95.6871 4.03695C-309.769 127.637 -382.563 399.305 -258.962 613.388C-256.174 618.217 -253.387 623.045 -250.598 627.874C-123.598 829.261 141.135 897.473 350.388 776.661C559.64 655.849 632.932 392.479 522.026 181.799C519.238 176.97 516.45 172.142 513.662 167.313C390.062 -46.7693 118.393 -119.563 -95.6871 4.03695ZM320.649 725.152C140.369 829.237 -88.8159 770.547 -199.091 598.134C-201.879 593.305 -204.666 588.477 -207.454 583.648C-314.326 398.54 -251.057 162.416 -65.9495 55.5441C119.158 -51.3278 355.282 11.9415 462.154 197.049C464.942 201.878 467.73 206.706 470.518 211.536C565.624 394.852 500.927 621.069 320.649 725.152Z" fill="#FFF287"/>
</svg>
