<?xml version="1.0" encoding="utf-8"?>
<!-- Generator: Adobe Illustrator 22.0.1, SVG Export Plug-In . SVG Version: 6.00 Build 0)  -->
<svg version="1.1" id="Camada_1" xmlns="http://www.w3.org/2000/svg" xmlns:xlink="http://www.w3.org/1999/xlink" x="0px" y="0px"
	 viewBox="0 0 720 220" style="enable-background:new 0 0 720 220;" xml:space="preserve">
<style type="text/css">
	.st0{fill:#56A1DA;}
	.st1{opacity:0.1;}
	.st2{fill:#FFFFFF;}
</style>
<rect class="st0" width="720" height="220"/>
<image style="overflow:visible;" width="1366" height="208" xlink:href="download.png"  transform="matrix(1.0577 0 0 1.0577 -551 -276)">
</image>
<g class="st1">
	<path class="st2" d="M1231.9,201.9c-20.4,0-40.8,0-61.2,0c-14.4,0-22.1-10-17.6-23.7c3.3-10,8.5-18.7,20.6-19.7
		c2.3-0.2,2.6-2.1,3.4-3.6c3-5.1,7-9.2,12.1-12.1c5.5-3.1,11.6-2.8,17.5-1.9c2.7,0.4,4.1-0.2,6-1.8c5.5-4.7,11.6-7.9,19.2-7.1
		C1231.9,155.4,1231.9,178.7,1231.9,201.9z"/>
	<path class="st2" d="M639.4,219.9c-10.6,0-21.2-0.6-31.7,0.1c-31.8,2.1-63.7,0.4-95.5,0.9c-13.2,0.2-22.4-9.3-22.9-22.4
		c-0.6-16.4,4.7-30,18.3-39.7c3.9-2.8,8.2-4.8,13.2-4.4c3.1,0.2,4.2-1.8,5.4-4c6.3-11,14.7-19.6,27.3-23.3c6.8-2,13.5-2.1,20.1,0.6
		c2.4,1,4.4,1.2,6.5-1.1c17-18.4,45.5-17.2,64.9-3c13.6,9.9,24.2,22.7,25.2,39.6c0.6,10.5,5.1,15.4,13.1,19.4
		c3.6,1.8,5.8,5.1,7.8,8.4c7.4,12.2,1.3,25.2-12.8,27.9c-10.3,2-20.7,0.6-31,1C644.7,220,642,219.9,639.4,219.9z"/>
	<path class="st2" d="M-33,115.2c-24.5,0-49,0.1-73.5-0.1c-4.2,0-8.2,1.8-12.5,1c-15.7-2.9-21-18-19.7-29.3
		c1.1-9.8,4.5-18.7,11.2-26.2c5.5-6.2,11.6-11.4,20.5-10.9c3.2,0.2,4.2-1.6,5.4-3.9c6.5-11.9,15.5-20.9,29.1-24
		c6-1.4,12.2-1.5,18.2,0.6c2.6,0.9,4.5,0.9,6.7-1.1C-27.6,2.6-2.9,4.3,18,18.9c14.3,10.1,22.6,24.2,25.9,41.3
		c1.4,7,4.2,11.5,10.1,15.8c4.3,3.1,8.2,6.6,10.6,11.5c6.8,13.9-1.1,22.9-13.7,26.6c-3.7,1.1-7.5,1.3-11.5,1.3
		C15.3,115.1-8.8,115.2-33,115.2z"/>
	<path class="st2" d="M1076.9,115.2c-24.7,0-49.3,0.1-74-0.1c-4.5,0-8.8,1.6-13.5,0.7c-12.7-2.6-17.3-10.7-18.4-20.3
		c-1.8-17.2,4.1-31.8,18.7-42c3-2.1,6.5-4.1,10.2-3.7c5.2,0.5,7.1-2.5,9.2-6.2c4.1-7.3,9.9-13.1,17-17.6c9.3-5.8,19.2-6.4,29.3-3.5
		c3.4,1,5,0.3,7.1-1.9c9.2-9.2,20.7-13.4,33.3-13.2c11.9,0.2,22.6,5.1,32,12c12.3,9,20.6,20.9,23.9,36c0.3,1.4,0.5,2.7,0.7,4.1
		c0.8,6.4,0.6,12.2,8.7,15.7c7.9,3.5,13.9,10.3,14.7,20.4c0.6,7.8-3.6,12.2-9.4,15.6c-4.6,2.7-9.7,3.9-15.1,3.9
		C1126.5,115.2,1101.7,115.2,1076.9,115.2z"/>
	<path class="st2" d="M168.1,159.6c-16.2,0-32.4,0-48.6,0c-10,0-17.3-7.9-16-17.8c1.1-7.7,3.5-15.1,9.9-20.4c1.3-1.1,2.7-2.9,4.2-3
		c8.3-0.9,12-7.5,16.8-12.8c6.3-7,14.1-8.7,23-6.8c2.2,0.5,4,0.6,5.9-0.9c13.3-10.4,25.9-11.4,39.7-2.6
		c11.2,7.1,18.6,17.1,18.6,31.1c0,3.1,1.6,4.2,3.9,5.5c5.8,3.3,10.7,7.2,11,14.9c0.2,4.5-1.7,7.4-5.3,9.5c-3.8,2.3-8.1,3.3-12.6,3.3
		C201.9,159.6,185,159.6,168.1,159.6z"/>
	<path class="st2" d="M896.3,200.9c-28.6,1.6-57.3,1-86,1.1c-10.1,0-16.4-6.3-16.3-16.4c0.1-11.6,7.4-25.9,20.9-26.9
		c1.8-0.1,2.6-1.1,3.4-2.7c6.8-12.5,16.5-17.2,30.5-14.7c2.4,0.4,3.6-0.6,5.1-1.8c10.5-8.7,22.3-9.9,34.4-4.4
		c14.3,6.6,23,17.5,23.9,33.7c0.2,2.8,0.8,4.3,3.5,5.5c3.5,1.5,6.4,4,8.7,7.3c6.5,9.1,1.1,18.4-9.9,19.3
		C908.6,201.2,902.4,200.9,896.3,200.9z"/>
	<path class="st2" d="M469.3,115.2c-13.4,0-26.7,0-40.1,0c-5.8,0-11.5,1.1-17.3,1.2c-18.8,0.3-20.7-11.6-18.1-23.8
		c2.1-10.1,7.7-18.6,19.7-19.7c3-0.3,3.7-3.1,4.9-5.1c4.4-7.4,10.9-11.5,19.2-13.5c3.7-0.9,6.9,0.6,10.3,1.2c2,0.3,3.3,0.2,4.7-1.2
		c12.5-12.9,29.7-9.8,42.2-0.9c10.3,7.3,15.2,17.6,16.7,29.7c0.4,2.9,1.6,4.2,3.9,5.6c2.6,1.6,5.4,3.2,7.2,6
		c2.7,4.1,5.2,8.2,2.6,13.1c-2.7,5.2-7.5,7.3-13.1,7.4C497.8,115.3,483.5,115.2,469.3,115.2z"/>
	<path class="st2" d="M-212.9,166.4c0-9.9,0.2-19.7-0.1-29.6c-0.1-3.8,1.3-5,4.9-4.7c9.5,0.8,17,5.6,23.3,12.2
		c6.9,7.1,10.6,16,11,26.1c0.1,2.2,1.1,3.2,2.9,3.9c3.1,1.2,5.3,3.4,7.5,5.7c3.2,3.5,5.9,7.4,3.9,12.3c-2,4.9-6.1,8.3-11.3,8.4
		c-13,0.4-26,0.1-39,0.2c-3.3,0-3-2.2-3-4.3C-212.9,186.5-212.9,176.4-212.9,166.4z"/>
	<path class="st2" d="M-6.2,223.1c-9,0-18-0.4-26.9,0.1c-12.9,0.6-13.2-8.3-10.6-17.5c1.1-4,4-7.4,8.8-8.2c2.6-0.4,4.3-2.1,5.6-4.3
		c3.4-5.4,8.4-7.8,14.7-7c2.4,0.3,4.4,0.1,6.3-1.4c13-9.9,27.6,0,32.2,10.2c1.1,2.5,2.3,5.2,2.2,8.1c-0.1,1.9,0.9,2.6,2.4,3.5
		c2,1.3,4,3,5.3,5c2.7,4.2,0.3,9.2-4.9,10.5c-8.5,2.2-17.1,0.6-25.7,1C0.1,223.2-3.1,223.1-6.2,223.1z"/>
	<path class="st2" d="M758.9,136.3c-16.8,1.6-33.7,1-50.6,1.1c-9.2,0-12.7-2.1-13.7-8.2c-1.1-7.4,3.4-15.9,10.2-17.8
		c2.9-0.8,4.3-2.5,6-4.5c4.1-4.8,8.6-8.9,15.8-6.7c1.7,0.5,3.4,0.1,4.9-1.2c6.2-5.4,13.4-5.2,20.3-2.1c7.7,3.4,12.8,9.4,13.6,18.1
		c0.3,3.2,1,5.1,4,6.6c3.8,1.8,6.2,5.1,5,9.3c-1.2,4.3-4.8,5.7-9.1,5.5C763.1,136.3,761,136.3,758.9,136.3z"/>
	<path class="st2" d="M129.9,49.6c-9.3,0-18.7,0-28,0c-10.1,0-14.3-5.7-10.8-15.5c1.7-4.8,4.6-8.8,10.1-9.8c1.9-0.4,3.1-1.5,4.1-2.9
		c4.3-6.1,9.6-10.3,17.7-7.9c1.4,0.4,2.3-0.3,3.3-1.1c11.5-10,26.9-2.1,32.2,7.6c1.5,2.9,3.3,5.9,3,9.4c-0.2,2,0.7,3.2,2.4,4.2
		c1.4,0.7,2.7,1.7,3.7,2.9c2.1,2.5,3.7,5.4,2.2,8.7c-1.6,3.7-5.2,4.5-8.8,4.6C150.7,49.7,140.3,49.6,129.9,49.6z"/>
	<path class="st2" d="M895.5,82.4c-9.9-0.7-22.3,0.8-34.7,1c-9,0.2-12.7-2.3-13.8-8.9c-1.1-6,4.6-15.7,10.5-17.2
		c2.6-0.7,4.2-1.9,5.7-4c4-5.3,8.9-8.9,16.1-6.9c1.3,0.4,2.7-0.1,4-0.9c14.6-9.3,30.4-2.9,34.5,13.9c0.8,3.4,1.5,6.5,5,8.7
		c3.3,2.1,6,5.3,4,9.8c-1.7,3.9-5.4,4.6-9.3,4.6C911,82.4,904.5,82.4,895.5,82.4z"/>
	<path class="st2" d="M341.4,173.4c-9.2,0.7-20.4-0.8-31.7,0.8c-4.4,0.6-7.4-3.2-8.5-7.4c-2-7.7,2.6-16.1,10.1-18.5
		c2.2-0.7,3.7-1.7,4.9-3.5c4-6.1,9.3-9.4,16.9-7.6c1.8,0.4,3-0.7,4.3-1.6c13-9.3,32.6-0.6,34.4,17c0.3,3,1.9,4.4,3.9,5.6
		c3.6,2.2,6.3,5.1,5.2,9.4c-1.2,4.9-5.4,5.8-10,5.8C361.8,173.3,352.6,173.4,341.4,173.4z"/>
</g>
</svg>
